<?xml version="1.0" ?>
<!-- Uploaded to: SVG Repo, www.svgrepo.com, Generator: SVG Repo Mixer Tools -->
<svg width="800px" height="800px" viewBox="0 0 512 512" version="1.1" xml:space="preserve" xmlns="http://www.w3.org/2000/svg" xmlns:xlink="http://www.w3.org/1999/xlink">
<style type="text/css">
	.st0{fill:#333333;}
</style>
<g id="Layer_1"/>
<g id="Layer_2">
<g>
<path class="st0" d="M256,399.4c63.02,0,114.3-51.27,114.3-114.3s-51.27-114.3-114.3-114.3s-114.3,51.27-114.3,114.3    S192.98,399.4,256,399.4z M256,202.81c45.38,0,82.3,36.92,82.3,82.3s-36.92,82.3-82.3,82.3s-82.3-36.92-82.3-82.3    S210.62,202.81,256,202.81z"/>
<path class="st0" d="M78.7,458.9h354.6c28.23,0,51.2-22.97,51.2-51.2V162.52c0-28.23-22.97-51.2-51.2-51.2h-71.02l-16.01-37.28    c-5.46-12.72-17.93-20.93-31.77-20.93h-117c-13.84,0-26.31,8.22-31.77,20.93l-16.01,37.28H78.7c-28.23,0-51.2,22.97-51.2,51.2    v245.18C27.5,435.93,50.47,458.9,78.7,458.9z M59.5,162.52c0-10.59,8.61-19.2,19.2-19.2h81.56c6.4,0,12.18-3.81,14.7-9.69    l20.17-46.96c0.41-0.95,1.34-1.56,2.37-1.56h117c1.03,0,1.96,0.61,2.37,1.56l20.17,46.96c2.52,5.88,8.3,9.69,14.7,9.69h81.56    c10.59,0,19.2,8.61,19.2,19.2v245.18c0,10.59-8.61,19.2-19.2,19.2H78.7c-10.59,0-19.2-8.61-19.2-19.2V162.52z"/>
<path class="st0" d="M388.06,203.06h20.43c8.84,0,16-7.16,16-16s-7.16-16-16-16h-20.43c-8.84,0-16,7.16-16,16    S379.23,203.06,388.06,203.06z"/>
</g>
</g>
</svg>