<?xml version="1.0" encoding="iso-8859-1"?>
<!-- Uploaded to: SVG Repo, www.svgrepo.com, Generator: SVG Repo Mixer Tools -->
<svg height="800px" width="800px" version="1.1" id="Capa_1" xmlns="http://www.w3.org/2000/svg" xmlns:xlink="http://www.w3.org/1999/xlink" 
	 viewBox="0 0 201.607 201.607" xml:space="preserve">
<g>
	<g>
		<path style="fill:#010002;" d="M171.398,22.858l-26.537,26.541H0l27.69,40.774l-0.007,0.007l24.554,35.95h69.093l-7.111,23.123
			H58.031v0.111c-7.594,0.583-13.621,6.886-13.621,14.634c0,8.135,6.617,14.752,14.756,14.752c8.128,0,14.745-6.617,14.745-14.752
			c0-2.924-0.884-5.647-2.358-7.945h24.622c-1.478,2.298-2.358,5.018-2.358,7.945c0,8.135,6.617,14.752,14.756,14.752
			c8.128,0,14.745-6.617,14.745-14.752c0-3.65-1.378-6.954-3.582-9.534l31.243-101.557l23.234-23.234h27.396v-6.811h-30.209V22.858z
			 M55.826,119.315L37.521,92.51h72.307v-6.803H32.886L12.852,56.199h129.987l-19.422,63.117
			C123.417,119.315,55.826,119.315,55.826,119.315z M67.103,163.994c0,4.381-3.561,7.941-7.938,7.941
			c-4.381,0-7.941-3.561-7.941-7.941c0-4.377,3.561-7.945,7.941-7.945C63.542,156.052,67.103,159.62,67.103,163.994z
			 M108.572,171.935c-4.384,0-7.941-3.561-7.941-7.941c0-4.377,3.561-7.945,7.941-7.945c4.381,0,7.945,3.568,7.945,7.945
			C116.517,168.374,112.952,171.935,108.572,171.935z"/>
	</g>
</g>
</svg>